<mxfile host="app.diagrams.net" modified="2020-12-21T18:52:39.253Z" agent="5.0 (Windows NT 10.0; Win64; x64) AppleWebKit/537.36 (KHTML, like Gecko) Chrome/87.0.4280.88 Safari/537.36" etag="ljlhFeniVGdvDP8WD-V6" version="14.1.1" type="github">
  <diagram name="Page-1" id="c9db0220-8083-56f3-ca83-edcdcd058819">
    <mxGraphModel dx="1422" dy="737" grid="1" gridSize="10" guides="1" tooltips="1" connect="1" arrows="1" fold="1" page="1" pageScale="1.5" pageWidth="826" pageHeight="1169" background="#ffffff" math="0" shadow="0">
      <root>
        <mxCell id="0" style=";html=1;" />
        <mxCell id="1" style=";html=1;" parent="0" />
        <mxCell id="3d76a8aef4d5c911-1" value="" style="html=1;shadow=0;dashed=0;shape=mxgraph.bootstrap.rect;fillColor=#222222;strokeColor=none;whiteSpace=wrap;rounded=0;fontSize=12;fontColor=#000000;align=center;" parent="1" vertex="1">
          <mxGeometry x="40" y="70" width="1160" height="40" as="geometry" />
        </mxCell>
        <mxCell id="3d76a8aef4d5c911-2" value="%COMPANY_NAME%" style="html=1;shadow=0;dashed=0;fillColor=none;strokeColor=none;shape=mxgraph.bootstrap.rect;fontColor=#999999;fontSize=14;whiteSpace=wrap;" parent="3d76a8aef4d5c911-1" vertex="1">
          <mxGeometry width="201.6286729878414" height="40" as="geometry" />
        </mxCell>
        <mxCell id="3d76a8aef4d5c911-9" value="%USERNAME%" style="html=1;shadow=0;dashed=0;fillColor=none;strokeColor=none;shape=mxgraph.bootstrap.rect;fontColor=#999999;whiteSpace=wrap;" parent="3d76a8aef4d5c911-1" vertex="1">
          <mxGeometry x="998.061931289815" width="161.9380687101848" height="40" as="geometry" />
        </mxCell>
        <mxCell id="HJUyTN3uVqlrTfipyZfz-1" value="" style="shape=triangle;direction=south;rounded=0;shadow=1;fontSize=12;align=center;html=1;" parent="3d76a8aef4d5c911-1" vertex="1">
          <mxGeometry x="1129.120568731912" y="18" width="8.065146919513657" height="4" as="geometry" />
        </mxCell>
        <mxCell id="HJUyTN3uVqlrTfipyZfz-3" value="&lt;font color=&quot;#ffffff&quot;&gt;Odhlásit se&lt;/font&gt;" style="text;html=1;strokeColor=none;align=center;verticalAlign=middle;whiteSpace=wrap;rounded=0;fillColor=#333333;" parent="1" vertex="1">
          <mxGeometry x="1060" y="110" width="140" height="30" as="geometry" />
        </mxCell>
        <mxCell id="HJUyTN3uVqlrTfipyZfz-5" value="" style="html=1;shadow=0;dashed=0;shape=mxgraph.bootstrap.rrect;rSize=5;strokeColor=#D2D3D4;html=1;whiteSpace=wrap;fillColor=#F8F9FA;fontColor=#212529;verticalAlign=top;align=left;spacing=20;spacingBottom=0;fontSize=14;horizontal=1;" parent="1" vertex="1">
          <mxGeometry x="40" y="160" width="1160" height="530" as="geometry" />
        </mxCell>
        <mxCell id="HJUyTN3uVqlrTfipyZfz-6" value="Události" style="html=1;shadow=0;dashed=0;shape=mxgraph.bootstrap.topButton;rSize=5;perimeter=none;whiteSpace=wrap;fillColor=#F0F1F2;strokeColor=#D2D3D4;fontColor=#212529;resizeWidth=1;fontSize=18;align=left;spacing=20;" parent="HJUyTN3uVqlrTfipyZfz-5" vertex="1">
          <mxGeometry width="1160" height="50" relative="1" as="geometry" />
        </mxCell>
        <mxCell id="HJUyTN3uVqlrTfipyZfz-12" value="" style="html=1;shadow=0;dashed=0;shape=mxgraph.bootstrap.rrect;rSize=5;strokeColor=#999999;strokeWidth=1;fillColor=#FFFFFF;fontColor=#6C767D;whiteSpace=wrap;align=left;verticalAlign=middle;spacingLeft=10;fontSize=14;spacing=10;" parent="HJUyTN3uVqlrTfipyZfz-5" vertex="1">
          <mxGeometry y="100" width="1160" height="430" as="geometry" />
        </mxCell>
        <mxCell id="HJUyTN3uVqlrTfipyZfz-22" value="" style="rounded=0;whiteSpace=wrap;html=1;strokeColor=#999999;fillColor=#FFFFFF;" parent="HJUyTN3uVqlrTfipyZfz-5" vertex="1">
          <mxGeometry y="50" width="145" height="50" as="geometry" />
        </mxCell>
        <mxCell id="HJUyTN3uVqlrTfipyZfz-32" value="Pondělí" style="rounded=0;whiteSpace=wrap;html=1;strokeColor=#999999;fillColor=#FFFFFF;" parent="HJUyTN3uVqlrTfipyZfz-5" vertex="1">
          <mxGeometry x="145" y="50" width="145" height="50" as="geometry" />
        </mxCell>
        <mxCell id="HJUyTN3uVqlrTfipyZfz-33" value="Úterý" style="rounded=0;whiteSpace=wrap;html=1;strokeColor=#999999;fillColor=#FFFFFF;" parent="HJUyTN3uVqlrTfipyZfz-5" vertex="1">
          <mxGeometry x="290" y="50" width="145" height="50" as="geometry" />
        </mxCell>
        <mxCell id="HJUyTN3uVqlrTfipyZfz-34" value="Středa" style="rounded=0;whiteSpace=wrap;html=1;strokeColor=#999999;fillColor=#FFFFFF;" parent="HJUyTN3uVqlrTfipyZfz-5" vertex="1">
          <mxGeometry x="435" y="50" width="145" height="50" as="geometry" />
        </mxCell>
        <mxCell id="HJUyTN3uVqlrTfipyZfz-35" value="Čtvrtek" style="rounded=0;whiteSpace=wrap;html=1;strokeColor=#999999;fillColor=#FFFFFF;" parent="HJUyTN3uVqlrTfipyZfz-5" vertex="1">
          <mxGeometry x="580" y="50" width="145" height="50" as="geometry" />
        </mxCell>
        <mxCell id="HJUyTN3uVqlrTfipyZfz-36" value="Pátek" style="rounded=0;whiteSpace=wrap;html=1;strokeColor=#999999;fillColor=#FFFFFF;" parent="HJUyTN3uVqlrTfipyZfz-5" vertex="1">
          <mxGeometry x="725" y="50" width="145" height="50" as="geometry" />
        </mxCell>
        <mxCell id="HJUyTN3uVqlrTfipyZfz-37" value="Sobota" style="rounded=0;whiteSpace=wrap;html=1;strokeColor=#999999;fillColor=#FFFFFF;" parent="HJUyTN3uVqlrTfipyZfz-5" vertex="1">
          <mxGeometry x="870" y="50" width="145" height="50" as="geometry" />
        </mxCell>
        <mxCell id="HJUyTN3uVqlrTfipyZfz-38" value="Neděle" style="rounded=0;whiteSpace=wrap;html=1;strokeColor=#999999;fillColor=#FFFFFF;" parent="HJUyTN3uVqlrTfipyZfz-5" vertex="1">
          <mxGeometry x="1015" y="50" width="145" height="50" as="geometry" />
        </mxCell>
        <mxCell id="HJUyTN3uVqlrTfipyZfz-40" value="" style="endArrow=none;html=1;entryX=0.125;entryY=-0.001;entryDx=0;entryDy=0;entryPerimeter=0;strokeColor=#999999;" parent="HJUyTN3uVqlrTfipyZfz-5" target="HJUyTN3uVqlrTfipyZfz-12" edge="1">
          <mxGeometry width="50" height="50" relative="1" as="geometry">
            <mxPoint x="145" y="530" as="sourcePoint" />
            <mxPoint x="190" y="110" as="targetPoint" />
          </mxGeometry>
        </mxCell>
        <mxCell id="HJUyTN3uVqlrTfipyZfz-41" value="" style="endArrow=none;html=1;entryX=0.125;entryY=-0.001;entryDx=0;entryDy=0;entryPerimeter=0;strokeColor=#999999;" parent="HJUyTN3uVqlrTfipyZfz-5" edge="1">
          <mxGeometry width="50" height="50" relative="1" as="geometry">
            <mxPoint x="290" y="530" as="sourcePoint" />
            <mxPoint x="290" y="99.56999999999994" as="targetPoint" />
          </mxGeometry>
        </mxCell>
        <mxCell id="HJUyTN3uVqlrTfipyZfz-42" value="" style="endArrow=none;html=1;entryX=0.125;entryY=-0.001;entryDx=0;entryDy=0;entryPerimeter=0;strokeColor=#999999;" parent="HJUyTN3uVqlrTfipyZfz-5" edge="1">
          <mxGeometry width="50" height="50" relative="1" as="geometry">
            <mxPoint x="434.16999999999996" y="530.43" as="sourcePoint" />
            <mxPoint x="434.16999999999996" y="99.99999999999994" as="targetPoint" />
          </mxGeometry>
        </mxCell>
        <mxCell id="HJUyTN3uVqlrTfipyZfz-43" value="" style="endArrow=none;html=1;entryX=0.125;entryY=-0.001;entryDx=0;entryDy=0;entryPerimeter=0;strokeColor=#999999;" parent="HJUyTN3uVqlrTfipyZfz-5" edge="1">
          <mxGeometry width="50" height="50" relative="1" as="geometry">
            <mxPoint x="579" y="530.43" as="sourcePoint" />
            <mxPoint x="579" y="99.99999999999994" as="targetPoint" />
          </mxGeometry>
        </mxCell>
        <mxCell id="HJUyTN3uVqlrTfipyZfz-44" value="" style="endArrow=none;html=1;entryX=0.125;entryY=-0.001;entryDx=0;entryDy=0;entryPerimeter=0;strokeColor=#999999;" parent="HJUyTN3uVqlrTfipyZfz-5" edge="1">
          <mxGeometry width="50" height="50" relative="1" as="geometry">
            <mxPoint x="725" y="530" as="sourcePoint" />
            <mxPoint x="725" y="99.56999999999994" as="targetPoint" />
          </mxGeometry>
        </mxCell>
        <mxCell id="HJUyTN3uVqlrTfipyZfz-45" value="" style="endArrow=none;html=1;entryX=0.125;entryY=-0.001;entryDx=0;entryDy=0;entryPerimeter=0;strokeColor=#999999;" parent="HJUyTN3uVqlrTfipyZfz-5" edge="1">
          <mxGeometry width="50" height="50" relative="1" as="geometry">
            <mxPoint x="870" y="530" as="sourcePoint" />
            <mxPoint x="870" y="99.56999999999994" as="targetPoint" />
          </mxGeometry>
        </mxCell>
        <mxCell id="HJUyTN3uVqlrTfipyZfz-46" value="" style="endArrow=none;html=1;entryX=0.125;entryY=-0.001;entryDx=0;entryDy=0;entryPerimeter=0;strokeColor=#999999;" parent="HJUyTN3uVqlrTfipyZfz-5" edge="1">
          <mxGeometry width="50" height="50" relative="1" as="geometry">
            <mxPoint x="1015" y="530.43" as="sourcePoint" />
            <mxPoint x="1015" y="99.99999999999994" as="targetPoint" />
          </mxGeometry>
        </mxCell>
        <mxCell id="HJUyTN3uVqlrTfipyZfz-47" value="Trénink" style="html=1;shadow=0;dashed=0;shape=mxgraph.bootstrap.rrect;rSize=5;strokeColor=none;strokeWidth=1;fillColor=#1CA5B8;fontColor=#FFFFFF;whiteSpace=wrap;align=left;verticalAlign=top;spacingLeft=0;fontStyle=1;fontSize=14;spacing=5;rounded=1;" parent="HJUyTN3uVqlrTfipyZfz-5" vertex="1">
          <mxGeometry x="145" y="120" width="145" height="150" as="geometry" />
        </mxCell>
        <mxCell id="HJUyTN3uVqlrTfipyZfz-50" value="" style="endArrow=none;html=1;strokeColor=#999999;exitX=0;exitY=0.048;exitDx=0;exitDy=0;exitPerimeter=0;rounded=0;" parent="HJUyTN3uVqlrTfipyZfz-5" source="HJUyTN3uVqlrTfipyZfz-12" edge="1">
          <mxGeometry width="50" height="50" relative="1" as="geometry">
            <mxPoint x="50" y="180" as="sourcePoint" />
            <mxPoint x="145" y="120" as="targetPoint" />
          </mxGeometry>
        </mxCell>
        <mxCell id="HJUyTN3uVqlrTfipyZfz-51" value="&amp;nbsp; &amp;nbsp; 9:00&amp;nbsp; &amp;nbsp;&amp;nbsp;" style="edgeLabel;html=1;align=center;verticalAlign=middle;resizable=0;points=[];" parent="HJUyTN3uVqlrTfipyZfz-50" vertex="1" connectable="0">
          <mxGeometry x="-0.1311" y="-1" relative="1" as="geometry">
            <mxPoint x="9.64" y="-1.36" as="offset" />
          </mxGeometry>
        </mxCell>
        <mxCell id="HJUyTN3uVqlrTfipyZfz-52" value="" style="endArrow=none;html=1;strokeColor=#999999;exitX=0;exitY=0.048;exitDx=0;exitDy=0;exitPerimeter=0;rounded=0;" parent="HJUyTN3uVqlrTfipyZfz-5" edge="1">
          <mxGeometry width="50" height="50" relative="1" as="geometry">
            <mxPoint y="270.21999999999997" as="sourcePoint" />
            <mxPoint x="145" y="269.58" as="targetPoint" />
          </mxGeometry>
        </mxCell>
        <mxCell id="HJUyTN3uVqlrTfipyZfz-53" value="&amp;nbsp; &amp;nbsp; 10:00&amp;nbsp; &amp;nbsp;&amp;nbsp;" style="edgeLabel;html=1;align=center;verticalAlign=middle;resizable=0;points=[];" parent="HJUyTN3uVqlrTfipyZfz-52" vertex="1" connectable="0">
          <mxGeometry x="-0.1311" y="-1" relative="1" as="geometry">
            <mxPoint x="9.64" y="-1.36" as="offset" />
          </mxGeometry>
        </mxCell>
        <mxCell id="HJUyTN3uVqlrTfipyZfz-54" value="" style="endArrow=none;html=1;strokeColor=#999999;exitX=0;exitY=0.048;exitDx=0;exitDy=0;exitPerimeter=0;rounded=0;" parent="HJUyTN3uVqlrTfipyZfz-5" edge="1">
          <mxGeometry width="50" height="50" relative="1" as="geometry">
            <mxPoint y="410.64" as="sourcePoint" />
            <mxPoint x="145" y="410" as="targetPoint" />
          </mxGeometry>
        </mxCell>
        <mxCell id="HJUyTN3uVqlrTfipyZfz-55" value="&amp;nbsp; &amp;nbsp; 11:00&amp;nbsp; &amp;nbsp;&amp;nbsp;" style="edgeLabel;html=1;align=center;verticalAlign=middle;resizable=0;points=[];" parent="HJUyTN3uVqlrTfipyZfz-54" vertex="1" connectable="0">
          <mxGeometry x="-0.1311" y="-1" relative="1" as="geometry">
            <mxPoint x="9.64" y="-1.36" as="offset" />
          </mxGeometry>
        </mxCell>
        <mxCell id="HJUyTN3uVqlrTfipyZfz-56" value="Zápas - vs TEAM" style="html=1;shadow=0;dashed=0;shape=mxgraph.bootstrap.rrect;rSize=5;strokeColor=none;strokeWidth=1;fillColor=#DB2843;fontColor=#FFFFFF;whiteSpace=wrap;align=left;verticalAlign=top;spacingLeft=0;fontStyle=1;fontSize=14;spacing=5;rounded=1;" parent="HJUyTN3uVqlrTfipyZfz-5" vertex="1">
          <mxGeometry x="145" y="390" width="145" height="140" as="geometry" />
        </mxCell>
        <mxCell id="HJUyTN3uVqlrTfipyZfz-57" value="" style="html=1;verticalLabelPosition=bottom;labelBackgroundColor=#ffffff;verticalAlign=top;shadow=0;dashed=0;strokeWidth=2;shape=mxgraph.ios7.misc.info;strokeColor=#0080f0;rounded=1;fillColor=#FFFFFF;align=left;" parent="HJUyTN3uVqlrTfipyZfz-5" vertex="1">
          <mxGeometry x="270" y="250" width="12" height="12" as="geometry" />
        </mxCell>
        <mxCell id="HJUyTN3uVqlrTfipyZfz-58" value="" style="html=1;verticalLabelPosition=bottom;labelBackgroundColor=#ffffff;verticalAlign=top;shadow=0;dashed=0;strokeWidth=2;shape=mxgraph.ios7.misc.info;strokeColor=#0080f0;rounded=1;fillColor=#FFFFFF;align=left;" parent="HJUyTN3uVqlrTfipyZfz-5" vertex="1">
          <mxGeometry x="270" y="510" width="12" height="12" as="geometry" />
        </mxCell>
        <mxCell id="HJUyTN3uVqlrTfipyZfz-59" value="Trénink" style="html=1;shadow=0;dashed=0;shape=mxgraph.bootstrap.rrect;rSize=5;strokeColor=none;strokeWidth=1;fillColor=#1CA5B8;fontColor=#FFFFFF;whiteSpace=wrap;align=left;verticalAlign=top;spacingLeft=0;fontStyle=1;fontSize=14;spacing=5;rounded=1;" parent="HJUyTN3uVqlrTfipyZfz-5" vertex="1">
          <mxGeometry x="290" y="120" width="144" height="410" as="geometry" />
        </mxCell>
        <mxCell id="HJUyTN3uVqlrTfipyZfz-60" value="" style="html=1;verticalLabelPosition=bottom;labelBackgroundColor=#ffffff;verticalAlign=top;shadow=0;dashed=0;strokeWidth=2;shape=mxgraph.ios7.misc.info;strokeColor=#0080f0;rounded=1;fillColor=#FFFFFF;align=left;" parent="HJUyTN3uVqlrTfipyZfz-5" vertex="1">
          <mxGeometry x="420" y="510" width="12" height="12" as="geometry" />
        </mxCell>
        <mxCell id="HJUyTN3uVqlrTfipyZfz-61" value="Zápas - vs TEAM" style="html=1;shadow=0;dashed=0;shape=mxgraph.bootstrap.rrect;rSize=5;strokeColor=none;strokeWidth=1;fillColor=#DB2843;fontColor=#FFFFFF;whiteSpace=wrap;align=left;verticalAlign=top;spacingLeft=0;fontStyle=1;fontSize=14;spacing=5;rounded=1;" parent="HJUyTN3uVqlrTfipyZfz-5" vertex="1">
          <mxGeometry x="435" y="120" width="143" height="220" as="geometry" />
        </mxCell>
        <mxCell id="HJUyTN3uVqlrTfipyZfz-62" value="" style="html=1;verticalLabelPosition=bottom;labelBackgroundColor=#ffffff;verticalAlign=top;shadow=0;dashed=0;strokeWidth=2;shape=mxgraph.ios7.misc.info;strokeColor=#0080f0;rounded=1;fillColor=#FFFFFF;align=left;" parent="HJUyTN3uVqlrTfipyZfz-5" vertex="1">
          <mxGeometry x="560" y="319" width="12" height="12" as="geometry" />
        </mxCell>
        <mxCell id="HJUyTN3uVqlrTfipyZfz-63" value="Turnaj" style="html=1;shadow=0;dashed=0;shape=mxgraph.bootstrap.rrect;rSize=5;strokeColor=none;strokeWidth=1;fillColor=#33A64C;fontColor=#FFFFFF;whiteSpace=wrap;align=left;verticalAlign=top;spacingLeft=0;fontStyle=1;fontSize=14;spacing=5;rounded=1;" parent="HJUyTN3uVqlrTfipyZfz-5" vertex="1">
          <mxGeometry x="580" y="100" width="144" height="430" as="geometry" />
        </mxCell>
        <mxCell id="HJUyTN3uVqlrTfipyZfz-64" value="" style="html=1;verticalLabelPosition=bottom;labelBackgroundColor=#ffffff;verticalAlign=top;shadow=0;dashed=0;strokeWidth=2;shape=mxgraph.ios7.misc.info;strokeColor=#0080f0;rounded=1;fillColor=#FFFFFF;align=left;" parent="HJUyTN3uVqlrTfipyZfz-5" vertex="1">
          <mxGeometry x="710" y="510" width="12" height="12" as="geometry" />
        </mxCell>
        <mxCell id="HJUyTN3uVqlrTfipyZfz-103" value="Turnaj" style="html=1;shadow=0;dashed=0;shape=mxgraph.bootstrap.rrect;rSize=5;strokeColor=none;strokeWidth=1;fillColor=#33A64C;fontColor=#FFFFFF;whiteSpace=wrap;align=left;verticalAlign=top;spacingLeft=0;fontStyle=1;fontSize=14;spacing=5;rounded=1;" parent="HJUyTN3uVqlrTfipyZfz-5" vertex="1">
          <mxGeometry x="726" y="100" width="144" height="430" as="geometry" />
        </mxCell>
        <mxCell id="HJUyTN3uVqlrTfipyZfz-104" value="" style="html=1;verticalLabelPosition=bottom;labelBackgroundColor=#ffffff;verticalAlign=top;shadow=0;dashed=0;strokeWidth=2;shape=mxgraph.ios7.misc.info;strokeColor=#0080f0;rounded=1;fillColor=#FFFFFF;align=left;" parent="HJUyTN3uVqlrTfipyZfz-5" vertex="1">
          <mxGeometry x="856" y="510" width="12" height="12" as="geometry" />
        </mxCell>
        <mxCell id="HJUyTN3uVqlrTfipyZfz-105" value="Turnaj" style="html=1;shadow=0;dashed=0;shape=mxgraph.bootstrap.rrect;rSize=5;strokeColor=none;strokeWidth=1;fillColor=#33A64C;fontColor=#FFFFFF;whiteSpace=wrap;align=left;verticalAlign=top;spacingLeft=0;fontStyle=1;fontSize=14;spacing=5;rounded=1;" parent="HJUyTN3uVqlrTfipyZfz-5" vertex="1">
          <mxGeometry x="871" y="100" width="144" height="430" as="geometry" />
        </mxCell>
        <mxCell id="HJUyTN3uVqlrTfipyZfz-106" value="" style="html=1;verticalLabelPosition=bottom;labelBackgroundColor=#ffffff;verticalAlign=top;shadow=0;dashed=0;strokeWidth=2;shape=mxgraph.ios7.misc.info;strokeColor=#0080f0;rounded=1;fillColor=#FFFFFF;align=left;" parent="HJUyTN3uVqlrTfipyZfz-5" vertex="1">
          <mxGeometry x="1001" y="510" width="12" height="12" as="geometry" />
        </mxCell>
        <mxCell id="HJUyTN3uVqlrTfipyZfz-107" value="Oslava turnaje" style="html=1;shadow=0;dashed=0;shape=mxgraph.bootstrap.rrect;rSize=5;strokeColor=none;strokeWidth=1;fillColor=#FFBC26;fontColor=#000000;whiteSpace=wrap;align=left;verticalAlign=top;spacingLeft=0;fontStyle=1;fontSize=14;spacing=5;rounded=1;horizontal=1;" parent="HJUyTN3uVqlrTfipyZfz-5" vertex="1">
          <mxGeometry x="1015" y="100" width="145" height="230" as="geometry" />
        </mxCell>
        <mxCell id="HJUyTN3uVqlrTfipyZfz-48" value="" style="html=1;verticalLabelPosition=bottom;labelBackgroundColor=#ffffff;verticalAlign=top;shadow=0;dashed=0;strokeWidth=2;shape=mxgraph.ios7.misc.scroll_(vertical);fillColor=#a0a0a0;rounded=1;align=left;" parent="HJUyTN3uVqlrTfipyZfz-5" vertex="1">
          <mxGeometry x="1150" y="140" width="6" height="80" as="geometry" />
        </mxCell>
        <mxCell id="HJUyTN3uVqlrTfipyZfz-108" value="" style="html=1;verticalLabelPosition=bottom;labelBackgroundColor=#ffffff;verticalAlign=top;shadow=0;dashed=0;strokeWidth=2;shape=mxgraph.ios7.misc.info;strokeColor=#0080f0;rounded=1;fillColor=#FFFFFF;align=left;" parent="HJUyTN3uVqlrTfipyZfz-5" vertex="1">
          <mxGeometry x="1138" y="309" width="12" height="12" as="geometry" />
        </mxCell>
        <mxCell id="HJUyTN3uVqlrTfipyZfz-109" value="10/15" style="text;html=1;strokeColor=none;fillColor=none;align=center;verticalAlign=middle;whiteSpace=wrap;rounded=0;" parent="HJUyTN3uVqlrTfipyZfz-5" vertex="1">
          <mxGeometry x="1098" y="305" width="40" height="20" as="geometry" />
        </mxCell>
        <mxCell id="HJUyTN3uVqlrTfipyZfz-111" value="Přihlášen" style="text;html=1;strokeColor=none;fillColor=none;align=center;verticalAlign=middle;whiteSpace=wrap;rounded=0;" parent="HJUyTN3uVqlrTfipyZfz-5" vertex="1">
          <mxGeometry x="1030" y="305" width="40" height="20" as="geometry" />
        </mxCell>
        <mxCell id="HJUyTN3uVqlrTfipyZfz-112" value="Opékání párků" style="html=1;shadow=0;dashed=0;shape=mxgraph.bootstrap.rrect;rSize=5;strokeColor=none;strokeWidth=1;fillColor=#FFBC26;fontColor=#000000;whiteSpace=wrap;align=left;verticalAlign=top;spacingLeft=0;fontStyle=1;fontSize=14;spacing=5;rounded=1;horizontal=1;" parent="1" vertex="1">
          <mxGeometry x="1055" y="511" width="145" height="179" as="geometry" />
        </mxCell>
        <mxCell id="HJUyTN3uVqlrTfipyZfz-113" value="" style="html=1;verticalLabelPosition=bottom;labelBackgroundColor=#ffffff;verticalAlign=top;shadow=0;dashed=0;strokeWidth=2;shape=mxgraph.ios7.misc.info;strokeColor=#0080f0;rounded=1;fillColor=#FFFFFF;align=left;" parent="1" vertex="1">
          <mxGeometry x="1178" y="664" width="12" height="12" as="geometry" />
        </mxCell>
        <mxCell id="HJUyTN3uVqlrTfipyZfz-114" value="24/45" style="text;html=1;strokeColor=none;fillColor=none;align=center;verticalAlign=middle;whiteSpace=wrap;rounded=0;" parent="1" vertex="1">
          <mxGeometry x="1138" y="660" width="40" height="20" as="geometry" />
        </mxCell>
        <mxCell id="HJUyTN3uVqlrTfipyZfz-115" value="Nepřihlášen" style="text;html=1;strokeColor=none;fillColor=none;align=center;verticalAlign=middle;whiteSpace=wrap;rounded=0;" parent="1" vertex="1">
          <mxGeometry x="1070" y="660" width="40" height="20" as="geometry" />
        </mxCell>
        <mxCell id="HJUyTN3uVqlrTfipyZfz-117" value="" style="endArrow=none;html=1;" parent="1" edge="1">
          <mxGeometry width="50" height="50" relative="1" as="geometry">
            <mxPoint x="185" y="495" as="sourcePoint" />
            <mxPoint x="330" y="495" as="targetPoint" />
          </mxGeometry>
        </mxCell>
        <mxCell id="HJUyTN3uVqlrTfipyZfz-118" value="" style="html=1;shadow=0;dashed=0;shape=mxgraph.bootstrap.rrect;rSize=5;strokeColor=#DFDFDF;html=1;whiteSpace=wrap;fillColor=#FFFFFF;fontColor=#000000;rounded=1;align=left;" parent="1" vertex="1">
          <mxGeometry x="40" y="760" width="560" height="190" as="geometry" />
        </mxCell>
        <mxCell id="HJUyTN3uVqlrTfipyZfz-119" value="Nadcházející události" style="html=1;shadow=0;dashed=0;shape=mxgraph.bootstrap.topButton;strokeColor=inherit;fillColor=#F7F7F7;rSize=5;perimeter=none;whiteSpace=wrap;resizeWidth=1;align=left;spacing=20;fontSize=14;" parent="HJUyTN3uVqlrTfipyZfz-118" vertex="1">
          <mxGeometry width="560" height="40" relative="1" as="geometry" />
        </mxCell>
        <mxCell id="HJUyTN3uVqlrTfipyZfz-126" value="Zápas - vs TEAM" style="html=1;shadow=0;dashed=0;shape=mxgraph.bootstrap.rrect;rSize=5;strokeColor=none;strokeWidth=1;fillColor=#DB2843;fontColor=#FFFFFF;whiteSpace=wrap;align=left;verticalAlign=middle;spacingLeft=0;fontStyle=1;fontSize=14;spacing=5;rounded=1;" parent="HJUyTN3uVqlrTfipyZfz-118" vertex="1">
          <mxGeometry x="20" y="60" width="460" height="20" as="geometry" />
        </mxCell>
        <mxCell id="HJUyTN3uVqlrTfipyZfz-127" value="" style="html=1;verticalLabelPosition=bottom;labelBackgroundColor=#ffffff;verticalAlign=top;shadow=0;dashed=0;strokeWidth=2;shape=mxgraph.ios7.misc.info;strokeColor=#0080f0;rounded=1;fillColor=#FFFFFF;align=left;" parent="HJUyTN3uVqlrTfipyZfz-118" vertex="1">
          <mxGeometry x="460" y="64" width="12" height="12" as="geometry" />
        </mxCell>
        <mxCell id="HJUyTN3uVqlrTfipyZfz-128" value="10:45" style="text;html=1;strokeColor=none;fillColor=none;align=center;verticalAlign=middle;whiteSpace=wrap;rounded=0;" parent="HJUyTN3uVqlrTfipyZfz-118" vertex="1">
          <mxGeometry x="500" y="60" width="40" height="20" as="geometry" />
        </mxCell>
        <mxCell id="HJUyTN3uVqlrTfipyZfz-122" value="" style="html=1;shadow=0;dashed=0;shape=mxgraph.bootstrap.rrect;rSize=5;strokeColor=#DFDFDF;html=1;whiteSpace=wrap;fillColor=#FFFFFF;fontColor=#000000;rounded=1;align=left;" parent="1" vertex="1">
          <mxGeometry x="640" y="760" width="560" height="190" as="geometry" />
        </mxCell>
        <mxCell id="HJUyTN3uVqlrTfipyZfz-123" value="Přihlásit se k události" style="html=1;shadow=0;dashed=0;shape=mxgraph.bootstrap.topButton;strokeColor=inherit;fillColor=#F7F7F7;rSize=5;perimeter=none;whiteSpace=wrap;resizeWidth=1;align=left;spacing=20;fontSize=14;" parent="HJUyTN3uVqlrTfipyZfz-122" vertex="1">
          <mxGeometry width="560" height="40" relative="1" as="geometry" />
        </mxCell>
        <mxCell id="HJUyTN3uVqlrTfipyZfz-129" value="Oslava turnaje" style="html=1;shadow=0;dashed=0;shape=mxgraph.bootstrap.rrect;rSize=5;strokeColor=none;strokeWidth=1;fillColor=#FFBC26;fontColor=#000000;whiteSpace=wrap;align=left;verticalAlign=middle;spacingLeft=0;fontStyle=1;fontSize=14;spacing=5;rounded=1;" parent="HJUyTN3uVqlrTfipyZfz-122" vertex="1">
          <mxGeometry x="20" y="50" width="470" height="20" as="geometry" />
        </mxCell>
        <mxCell id="HJUyTN3uVqlrTfipyZfz-131" value="" style="html=1;verticalLabelPosition=bottom;labelBackgroundColor=#ffffff;verticalAlign=top;shadow=0;dashed=0;strokeWidth=2;shape=mxgraph.ios7.misc.info;strokeColor=#0080f0;rounded=1;fillColor=#FFFFFF;align=left;" parent="HJUyTN3uVqlrTfipyZfz-122" vertex="1">
          <mxGeometry x="470" y="54" width="12" height="12" as="geometry" />
        </mxCell>
        <mxCell id="HJUyTN3uVqlrTfipyZfz-132" value="8:45" style="text;html=1;strokeColor=none;fillColor=none;align=center;verticalAlign=middle;whiteSpace=wrap;rounded=0;" parent="HJUyTN3uVqlrTfipyZfz-122" vertex="1">
          <mxGeometry x="500" y="50" width="40" height="20" as="geometry" />
        </mxCell>
        <mxCell id="HJUyTN3uVqlrTfipyZfz-133" value="Opékání párků" style="html=1;shadow=0;dashed=0;shape=mxgraph.bootstrap.rrect;rSize=5;strokeColor=none;strokeWidth=1;fillColor=#FFBC26;fontColor=#000000;whiteSpace=wrap;align=left;verticalAlign=middle;spacingLeft=0;fontStyle=1;fontSize=14;spacing=5;rounded=1;" parent="HJUyTN3uVqlrTfipyZfz-122" vertex="1">
          <mxGeometry x="20" y="85" width="470" height="20" as="geometry" />
        </mxCell>
        <mxCell id="HJUyTN3uVqlrTfipyZfz-134" value="" style="html=1;verticalLabelPosition=bottom;labelBackgroundColor=#ffffff;verticalAlign=top;shadow=0;dashed=0;strokeWidth=2;shape=mxgraph.ios7.misc.info;strokeColor=#0080f0;rounded=1;fillColor=#FFFFFF;align=left;" parent="HJUyTN3uVqlrTfipyZfz-122" vertex="1">
          <mxGeometry x="470" y="89" width="12" height="12" as="geometry" />
        </mxCell>
        <mxCell id="HJUyTN3uVqlrTfipyZfz-135" value="10:30" style="text;html=1;strokeColor=none;fillColor=none;align=center;verticalAlign=middle;whiteSpace=wrap;rounded=0;" parent="HJUyTN3uVqlrTfipyZfz-122" vertex="1">
          <mxGeometry x="500" y="85" width="40" height="20" as="geometry" />
        </mxCell>
        <mxCell id="HJUyTN3uVqlrTfipyZfz-136" value="" style="html=1;aspect=fixed;strokeColor=none;shadow=0;align=center;verticalAlign=top;fillColor=#2D9C5E;shape=mxgraph.gcp2.check;rounded=1;" parent="HJUyTN3uVqlrTfipyZfz-122" vertex="1">
          <mxGeometry x="449" y="51.60000000000002" width="21" height="16.8" as="geometry" />
        </mxCell>
      </root>
    </mxGraphModel>
  </diagram>
</mxfile>
